<svg aria-hidden="true" style="position: absolute; width: 0; height: 0; overflow: hidden;" version="1.1" xmlns="http://www.w3.org/2000/svg" xmlns:xlink="http://www.w3.org/1999/xlink">
<defs>
<symbol id="icon-twitter" viewBox="0 0 40 32">
<path d="M35.651 7.975c0.024 0.351 0.024 0.7 0.024 1.051 0 10.675-8.124 22.975-22.973 22.975-4.576 0-8.827-1.325-12.4-3.625 0.649 0.075 1.273 0.1 1.949 0.1 0.012 0 0.026 0 0.040 0 3.783 0 7.263-1.299 10.018-3.475l-0.034 0.026c-3.518-0.066-6.482-2.369-7.533-5.543l-0.016-0.057c0.5 0.075 1 0.124 1.525 0.124 0.756-0.002 1.487-0.102 2.184-0.288l-0.060 0.014c-3.719-0.772-6.475-4.022-6.475-7.916 0-0.003 0-0.007 0-0.010v0.001-0.099c1.052 0.598 2.303 0.971 3.635 1.024l0.016 0.001c-2.183-1.467-3.6-3.927-3.6-6.719 0-0.002 0-0.005 0-0.007v0c0-1.5 0.4-2.875 1.1-4.075 4.001 4.897 9.919 8.098 16.593 8.448l0.057 0.002c-0.124-0.555-0.196-1.193-0.2-1.848v-0.003c0-4.449 3.6-8.075 8.075-8.075 2.325 0 4.425 0.975 5.9 2.551 1.932-0.38 3.65-1.057 5.197-1.991l-0.071 0.040c-0.625 1.898-1.88 3.445-3.513 4.429l-0.036 0.020c1.723-0.2 3.294-0.641 4.752-1.29l-0.103 0.041c-1.126 1.626-2.467 3.007-4.002 4.141l-0.047 0.033z"></path>
</symbol>
<symbol id="icon-facebook" viewBox="0 0 19 32">
<path d="M16.78 18l0.888-5.791h-5.557v-3.759c0-1.584 0.777-3.129 3.267-3.129h2.525v-4.931s-2.293-0.391-4.485-0.391c-4.576 0-7.567 2.773-7.567 7.795v4.413h-5.087v5.792h5.087v14h6.26v-14h4.669z"></path>
</symbol>
<symbol id="icon-instagram" viewBox="0 0 35 32">
<path d="M17.337 7.796c-0.004 0-0.008 0-0.012 0-4.524 0-8.192 3.668-8.192 8.192 0 0.004 0 0.008 0 0.013v-0.001c0 0.004 0 0.008 0 0.012 0 4.524 3.668 8.192 8.192 8.192 0.004 0 0.008 0 0.013 0h-0.001c0.004 0 0.008 0 0.012 0 4.524 0 8.192-3.668 8.192-8.192 0-0.004 0-0.008 0-0.013v0.001c0-0.004 0-0.008 0-0.012 0-4.524-3.668-8.192-8.192-8.192-0.004 0-0.008 0-0.013 0h0.001zM17.337 21.333c-2.935 0-5.333-2.392-5.333-5.333s2.391-5.333 5.333-5.333c2.941 0 5.333 2.392 5.333 5.333s-2.399 5.333-5.333 5.333zM27.791 7.46c0 1.064-0.856 1.913-1.913 1.913s-1.913-0.857-1.913-1.913 0.857-1.913 1.913-1.913c1.057 0 1.913 0.857 1.913 1.913v0zM33.225 9.403c-0.121-2.564-0.707-4.835-2.587-6.705-1.868-1.871-4.139-2.456-6.703-2.585-2.641-0.149-10.56-0.149-13.203 0-2.556 0.121-4.827 0.707-6.704 2.579-1.88 1.869-2.459 4.141-2.589 6.704-0.149 2.643-0.149 10.56 0 13.203 0.123 2.564 0.708 4.835 2.587 6.705 1.877 1.871 4.141 2.456 6.704 2.585 2.643 0.149 10.56 0.149 13.203 0 2.564-0.121 4.835-0.707 6.705-2.585 1.871-1.871 2.456-4.141 2.585-6.705 0.149-2.641 0.149-10.553 0-13.195zM29.812 25.432c-0.561 1.396-1.646 2.482-3.006 3.030l-0.036 0.013c-2.107 0.835-7.104 0.643-9.432 0.643s-7.333 0.185-9.433-0.643c-1.395-0.561-2.48-1.647-3.027-3.006l-0.013-0.036c-0.836-2.107-0.644-7.104-0.644-9.432s-0.187-7.333 0.643-9.432c0.561-1.396 1.646-2.481 3.005-3.030l0.036-0.013c2.107-0.835 7.107-0.643 9.433-0.643 2.328 0 7.333-0.185 9.432 0.643 1.396 0.561 2.482 1.646 3.030 3.006l0.013 0.036c0.835 2.107 0.643 7.104 0.643 9.432s0.192 7.333-0.643 9.432z"></path>
</symbol>
<symbol id="icon-linkedin" viewBox="0 0 32 32">
<path d="M7.163 32h-6.635v-21.365h6.635v21.365zM3.843 7.72c-2.123 0-3.843-1.755-3.843-3.876-0-0.021-0.001-0.046-0.001-0.072 0-2.122 1.72-3.843 3.843-3.843s3.843 1.72 3.843 3.843c0 0.025-0 0.050-0.001 0.075l0-0.004c0 2.12-1.72 3.879-3.841 3.879zM31.993 32h-6.62v-10.4c0-2.48-0.049-5.657-3.449-5.657-3.449 0-3.977 2.693-3.977 5.479v10.579h-6.627v-21.365h6.361v2.915h0.093c0.885-1.679 3.049-3.449 6.277-3.449 6.715 0 7.948 4.421 7.948 10.164v11.736h-0.007z"></path>
</symbol>
</defs>
</svg>
